<?xml version="1.0" encoding="UTF-8" standalone="no"?>
<svg xmlns:dc="http://purl.org/dc/elements/1.1/" xmlns:cc="http://creativecommons.org/ns#" xmlns:rdf="http://www.w3.org/1999/02/22-rdf-syntax-ns#" xmlns:svg="http://www.w3.org/2000/svg" xmlns="http://www.w3.org/2000/svg" viewBox="0 0 2047.9999 2047.9999" height="2048" width="2048" version="1.1" id="svg-parabola_officialIcon_default">
  <title id="title-parabola_officialIcon_default">Parabola Official Icon (Default Color)</title>
  <metadata id="metadata-parabola_officialIcon_default">
    <rdf:RDF>
      <cc:Work rdf:about="">
        <dc:format>image/svg+xml</dc:format>
        <dc:type rdf:resource="http://purl.org/dc/dcmitype/StillImage"/>
        <dc:title>Parabola Official Icon (Default Color)</dc:title>
        <cc:license rdf:resource="https://projects.parabola.nu/paw.git/tree/COPYING"/>
        <dc:date>2013/04/18</dc:date>
        <dc:creator>
          <cc:Agent>
            <dc:title>Jorge Araya Navarro &lt;elcorreo@deshackra.com&gt;</dc:title>
          </cc:Agent>
        </dc:creator>
        <dc:subject>
          <rdf:Bag>
            <rdf:li>Parabola</rdf:li>
          </rdf:Bag>
        </dc:subject>
      </cc:Work>
    </rdf:RDF>
  </metadata>
  <path id="path-parabola_officialIcon_default" d="m 1637.7096,159.76626 c -52.8151,5.04598 -108.8905,14.32208 -167.3821,26.6933 l -370.5653,380.29966 c 42.4752,5.1105 81.347,13.54542 116.8222,25.43728 l 421.1252,-432.43024 z m 260.9662,21.35464 -512.8247,526.01406 c 144.2267,186.90722 93.4223,562.35564 -210.0915,1181.09854 224.5542,-245.1243 1204.5796,-1463.2616 756.2042,-1692.98065 -10.41,-5.33405 -21.7937,-9.9214 -33.288,-14.13195 z m -683.3474,74.11322 c -70.9405,22.57378 -143.1482,48.16661 -215.1162,75.36808 L 754.94813,582.14719 c 56.26005,-9.12055 109.60434,-15.252 159.84554,-18.52802 L 1215.3284,255.23412 Z M 847.58947,390.58347 C 400.1339,574.63873 -3.3645122e-5,799.46161 -3.3645122e-5,799.46161 237.69947,710.38217 452.37355,643.78894 639.69599,603.8164 L 847.58947,390.58347 Z" style="fill:#787dab"/>
</svg>